<svg width="74" height="70" viewBox="0 0 74 70" fill="none" xmlns="http://www.w3.org/2000/svg">
<circle cx="3" cy="3" r="3" fill="#A3A3A3" fill-opacity="0.32"/>
<circle cx="3" cy="19" r="3" fill="#A3A3A3" fill-opacity="0.32"/>
<circle cx="3" cy="35" r="3" fill="#A3A3A3" fill-opacity="0.32"/>
<circle cx="3" cy="51" r="3" fill="#A3A3A3" fill-opacity="0.32"/>
<circle cx="3" cy="67" r="3" fill="#A3A3A3" fill-opacity="0.32"/>
<circle cx="20" cy="3" r="3" fill="#A3A3A3" fill-opacity="0.32"/>
<circle cx="20" cy="19" r="3" fill="#A3A3A3" fill-opacity="0.32"/>
<circle cx="20" cy="35" r="3" fill="#A3A3A3" fill-opacity="0.32"/>
<circle cx="20" cy="51" r="3" fill="#A3A3A3" fill-opacity="0.32"/>
<circle cx="20" cy="67" r="3" fill="#A3A3A3" fill-opacity="0.32"/>
<circle cx="37" cy="3" r="3" fill="#A3A3A3" fill-opacity="0.32"/>
<circle cx="37" cy="19" r="3" fill="#A3A3A3" fill-opacity="0.32"/>
<circle cx="37" cy="35" r="3" fill="#A3A3A3" fill-opacity="0.32"/>
<circle cx="37" cy="51" r="3" fill="#A3A3A3" fill-opacity="0.32"/>
<circle cx="37" cy="67" r="3" fill="#A3A3A3" fill-opacity="0.32"/>
<circle cx="54" cy="3" r="3" fill="#A3A3A3" fill-opacity="0.32"/>
<circle cx="54" cy="19" r="3" fill="#A3A3A3" fill-opacity="0.32"/>
<circle cx="54" cy="35" r="3" fill="#A3A3A3" fill-opacity="0.32"/>
<circle cx="54" cy="51" r="3" fill="#A3A3A3" fill-opacity="0.32"/>
<circle cx="54" cy="67" r="3" fill="#A3A3A3" fill-opacity="0.32"/>
<circle cx="71" cy="3" r="3" fill="#A3A3A3" fill-opacity="0.32"/>
<circle cx="71" cy="19" r="3" fill="#A3A3A3" fill-opacity="0.32"/>
<circle cx="71" cy="35" r="3" fill="#A3A3A3" fill-opacity="0.32"/>
<circle cx="71" cy="51" r="3" fill="#A3A3A3" fill-opacity="0.32"/>
<circle cx="71" cy="67" r="3" fill="#A3A3A3" fill-opacity="0.32"/>
</svg>
