<svg width="180" height="177" viewBox="0 0 180 177" fill="none" xmlns="http://www.w3.org/2000/svg">
<path d="M67.5387 0.706906C50.4585 5.16235 35.0831 14.5826 23.3568 27.7764C11.6304 40.9702 4.07983 57.345 1.65983 74.8301C-0.760193 92.3152 2.05907 110.125 9.76109 126.008C17.4631 141.891 29.702 155.133 44.93 164.06C60.158 172.987 77.6912 177.198 95.3124 176.16C112.934 175.123 129.851 168.883 143.926 158.23C158.001 147.578 168.601 132.991 174.386 116.314C180.171 99.6368 180.88 81.6189 176.425 64.5387L143.061 73.242C145.795 83.7233 145.359 94.7801 141.81 105.014C138.26 115.248 131.755 124.199 123.118 130.736C114.481 137.274 104.099 141.103 93.2854 141.739C82.4721 142.376 71.7127 139.792 62.3679 134.314C53.0232 128.836 45.5127 120.71 40.7863 110.963C36.0599 101.216 34.3299 90.2871 35.8149 79.5573C37.3 68.8275 41.9334 58.779 49.1294 50.6825C56.3253 42.5861 65.7606 36.8052 76.242 34.0711L67.5387 0.706906Z" fill="#F5F7FB" fill-opacity="0.1"/>
</svg>
