<svg width="277" height="264" viewBox="0 0 277 264" fill="none" xmlns="http://www.w3.org/2000/svg">
<mask id="mask0_1_35" style="mask-type:alpha" maskUnits="userSpaceOnUse" x="-59" y="-72" width="336" height="336">
<circle cx="109" cy="96" r="168" fill="white"/>
</mask>
<g mask="url(#mask0_1_35)">
<line x1="4.30175" y1="-121.487" x2="-103.211" y2="201.553" stroke="white" stroke-width="2" stroke-linecap="round"/>
<line x1="28.8255" y1="-113.325" x2="-78.6875" y2="209.715" stroke="white" stroke-width="2" stroke-linecap="round"/>
<line x1="53.349" y1="-105.163" x2="-54.164" y2="217.877" stroke="white" stroke-width="2" stroke-linecap="round"/>
<line x1="77.8727" y1="-97.0011" x2="-29.6403" y2="226.039" stroke="white" stroke-width="2" stroke-linecap="round"/>
<line x1="102.396" y1="-88.839" x2="-5.11671" y2="234.201" stroke="white" stroke-width="2" stroke-linecap="round"/>
<line x1="126.92" y1="-80.6769" x2="19.4068" y2="242.363" stroke="white" stroke-width="2" stroke-linecap="round"/>
<line x1="151.444" y1="-72.5148" x2="43.9305" y2="250.525" stroke="white" stroke-width="2" stroke-linecap="round"/>
<line x1="175.967" y1="-64.3527" x2="68.454" y2="258.688" stroke="white" stroke-width="2" stroke-linecap="round"/>
<line x1="200.491" y1="-56.1934" x2="92.9777" y2="266.847" stroke="white" stroke-width="2" stroke-linecap="round"/>
<line x1="225.015" y1="-48.0313" x2="117.502" y2="275.009" stroke="white" stroke-width="2" stroke-linecap="round"/>
<line x1="249.538" y1="-39.8692" x2="142.025" y2="283.171" stroke="white" stroke-width="2" stroke-linecap="round"/>
<line x1="274.062" y1="-31.7071" x2="166.549" y2="291.333" stroke="white" stroke-width="2" stroke-linecap="round"/>
<line x1="298.585" y1="-23.545" x2="191.072" y2="299.495" stroke="white" stroke-width="2" stroke-linecap="round"/>
<line x1="323.109" y1="-15.3828" x2="215.596" y2="307.657" stroke="white" stroke-width="2" stroke-linecap="round"/>
</g>
</svg>
