<svg width="138" height="32" viewBox="0 0 138 32" fill="none" xmlns="http://www.w3.org/2000/svg">
<path d="M20.1894 0.659998L12.4774 10.74L4.82938 0.659998H0.0293751V24.5H4.98938V8.788L12.1894 18.42H12.8294L20.0294 9.14V24.5H24.9894V0.659998H20.1894ZM35.9459 6.644C32.2339 6.644 29.2259 8.5 28.2019 11.38L32.3299 13.364C32.8419 11.796 34.2499 10.804 35.9459 10.804C37.5459 10.804 38.6339 11.668 38.6339 12.98V13.556L33.1619 14.708C29.6099 15.444 27.5619 17.14 27.5619 19.732C27.5619 22.644 30.0579 24.884 34.0259 24.884C36.0419 24.884 37.6419 24.276 38.9539 22.9V24.5H43.4339V12.98C43.4339 9.236 40.3939 6.644 35.9459 6.644ZM34.7619 21.364C33.3859 21.364 32.5219 20.724 32.5219 19.668C32.5219 18.868 33.0339 18.26 34.0259 18.036L38.6339 17.012V17.844C38.6339 19.796 36.9379 21.364 34.7619 21.364ZM62.6626 7.028H57.0626L50.7906 13.652V0.659998H45.9906V24.5H50.7906V20.116L53.2226 17.492L57.4466 24.5H62.6626L56.3266 14.068L62.6626 7.028ZM71.3521 6.644C67.6401 6.644 64.6321 8.5 63.6081 11.38L67.7361 13.364C68.2481 11.796 69.6561 10.804 71.3521 10.804C72.9521 10.804 74.0401 11.668 74.0401 12.98V13.556L68.5681 14.708C65.0161 15.444 62.9681 17.14 62.9681 19.732C62.9681 22.644 65.4641 24.884 69.4321 24.884C71.4481 24.884 73.0481 24.276 74.3601 22.9V24.5H78.8401V12.98C78.8401 9.236 75.8001 6.644 71.3521 6.644ZM70.1681 21.364C68.7921 21.364 67.9281 20.724 67.9281 19.668C67.9281 18.868 68.4401 18.26 69.4321 18.036L74.0401 17.012V17.844C74.0401 19.796 72.3441 21.364 70.1681 21.364ZM90.6129 6.836C88.4689 6.836 86.7729 7.476 85.8769 9.652V7.028H81.3969V24.5H86.1969V15.092C86.1969 12.5 87.7969 10.996 90.1329 10.996H92.4369V6.836H90.6129ZM106.142 7.028L102.014 18.356L97.8856 7.028H92.7656L99.6136 24.5L99.1656 25.492C98.7496 26.42 98.2056 27.476 96.2856 27.476C95.5816 27.476 94.7176 27.348 94.1096 27.156V31.092C94.8456 31.476 95.8376 31.636 96.8616 31.636C101.566 31.636 103.038 28.084 103.678 26.42L111.262 7.028H106.142ZM120.937 24.884C126.121 24.884 130.281 21.044 130.281 15.764C130.281 10.484 126.121 6.644 120.937 6.644C115.753 6.644 111.593 10.484 111.593 15.764C111.593 21.044 115.753 24.884 120.937 24.884ZM120.937 20.564C118.313 20.564 116.553 18.58 116.553 15.764C116.553 12.98 118.313 10.964 120.937 10.964C123.561 10.964 125.321 12.98 125.321 15.764C125.321 18.58 123.561 20.564 120.937 20.564ZM133.002 24.5H137.802V19.7H133.002V24.5Z" fill="#326DB7"/>
</svg>
