<svg width="21" height="25" viewBox="0 0 21 25" fill="none" xmlns="http://www.w3.org/2000/svg">
<path fill-rule="evenodd" clip-rule="evenodd" d="M14.151 0.333313C18.1083 0.333313 20.3786 2.29215 20.3786 5.70465V22.6633C20.3786 23.375 20.0123 24.0155 19.3963 24.3736C18.7826 24.733 18.043 24.74 17.4223 24.39L10.469 20.4618L3.45145 24.3981C3.14812 24.5685 2.81562 24.6548 2.48195 24.6548C2.13779 24.6548 1.79362 24.5626 1.48095 24.3783C0.86612 24.0201 0.499786 23.3796 0.499786 22.6691V5.49115C0.499786 2.21281 2.77129 0.333313 6.73212 0.333313H14.151ZM14.151 2.08331H6.73212C3.75829 2.08331 2.24979 3.22898 2.24979 5.49115V22.6691C2.24979 22.7788 2.31279 22.8383 2.36529 22.8686C2.41779 22.9013 2.50062 22.9246 2.59629 22.871L10.042 18.6943C10.308 18.5461 10.6335 18.545 10.9006 18.6955L18.2821 22.8651C18.379 22.9211 18.4618 22.8955 18.5143 22.864C18.5668 22.8325 18.6286 22.773 18.6286 22.6633L18.6282 5.5717C18.6194 4.56758 18.4251 2.08331 14.151 2.08331ZM14.6629 8.18323C15.1459 8.18323 15.5379 8.57523 15.5379 9.05823C15.5379 9.54123 15.1459 9.93323 14.6629 9.93323H6.12522C5.64222 9.93323 5.25022 9.54123 5.25022 9.05823C5.25022 8.57523 5.64222 8.18323 6.12522 8.18323H14.6629Z" fill="#A3A3A3"/>
</svg>
