<svg width="28" height="28" viewBox="0 0 28 28" fill="none" xmlns="http://www.w3.org/2000/svg">
<path fill-rule="evenodd" clip-rule="evenodd" d="M13.6953 2.33337C19.9603 2.33337 25.0563 7.42937 25.0563 13.6944C25.0563 16.6502 23.922 19.346 22.0657 21.3693L25.7183 25.0142C26.0601 25.356 26.0613 25.909 25.7194 26.2509C25.5491 26.4235 25.3239 26.5087 25.0999 26.5087C24.8771 26.5087 24.6531 26.4235 24.4816 26.2532L20.785 22.5669C18.8404 24.1242 16.3748 25.0565 13.6953 25.0565C7.4303 25.0565 2.33313 19.9594 2.33313 13.6944C2.33313 7.42937 7.4303 2.33337 13.6953 2.33337ZM13.6953 4.08337C8.39513 4.08337 4.08313 8.39421 4.08313 13.6944C4.08313 18.9945 8.39513 23.3065 13.6953 23.3065C18.9943 23.3065 23.3063 18.9945 23.3063 13.6944C23.3063 8.39421 18.9943 4.08337 13.6953 4.08337Z" fill="#A3A3A3"/>
</svg>
